<mxfile host="app.diagrams.net" modified="2023-02-08T08:43:07.760Z" agent="5.0 (Windows NT 10.0; Win64; x64) AppleWebKit/537.36 (KHTML, like Gecko) Chrome/109.0.0.0 Safari/537.36" etag="lAfVmV8C1rYXYPtSYtHz" version="20.8.18" type="github">
  <diagram name="第 1 页" id="3kF8LRZShBhXQUS7dJpd">
    <mxGraphModel dx="1434" dy="727" grid="0" gridSize="10" guides="1" tooltips="1" connect="1" arrows="1" fold="1" page="1" pageScale="1" pageWidth="827" pageHeight="1169" math="0" shadow="0">
      <root>
        <mxCell id="0" />
        <mxCell id="1" parent="0" />
        <mxCell id="EIBAopFfBwxQ-r4Z7fLU-6" style="edgeStyle=orthogonalEdgeStyle;rounded=0;orthogonalLoop=1;jettySize=auto;html=1;exitX=1;exitY=0.5;exitDx=0;exitDy=0;entryX=0;entryY=0.5;entryDx=0;entryDy=0;" edge="1" parent="1" source="EIBAopFfBwxQ-r4Z7fLU-1" target="EIBAopFfBwxQ-r4Z7fLU-3">
          <mxGeometry relative="1" as="geometry" />
        </mxCell>
        <mxCell id="EIBAopFfBwxQ-r4Z7fLU-1" value="问题描述：抵扣联无法合规拦截" style="rounded=1;whiteSpace=wrap;html=1;" vertex="1" parent="1">
          <mxGeometry y="250" width="120" height="60" as="geometry" />
        </mxCell>
        <mxCell id="EIBAopFfBwxQ-r4Z7fLU-5" style="edgeStyle=orthogonalEdgeStyle;rounded=0;orthogonalLoop=1;jettySize=auto;html=1;exitX=1;exitY=0.5;exitDx=0;exitDy=0;" edge="1" parent="1" source="EIBAopFfBwxQ-r4Z7fLU-3" target="EIBAopFfBwxQ-r4Z7fLU-4">
          <mxGeometry relative="1" as="geometry" />
        </mxCell>
        <mxCell id="EIBAopFfBwxQ-r4Z7fLU-3" value="查看日志" style="whiteSpace=wrap;html=1;rounded=1;" vertex="1" parent="1">
          <mxGeometry x="190" y="250" width="120" height="60" as="geometry" />
        </mxCell>
        <mxCell id="EIBAopFfBwxQ-r4Z7fLU-8" style="edgeStyle=orthogonalEdgeStyle;rounded=0;orthogonalLoop=1;jettySize=auto;html=1;exitX=0.5;exitY=1;exitDx=0;exitDy=0;" edge="1" parent="1" source="EIBAopFfBwxQ-r4Z7fLU-4" target="EIBAopFfBwxQ-r4Z7fLU-7">
          <mxGeometry relative="1" as="geometry" />
        </mxCell>
        <mxCell id="EIBAopFfBwxQ-r4Z7fLU-4" value="日志乱，没有打印" style="whiteSpace=wrap;html=1;rounded=1;" vertex="1" parent="1">
          <mxGeometry x="354" y="250" width="120" height="60" as="geometry" />
        </mxCell>
        <mxCell id="EIBAopFfBwxQ-r4Z7fLU-11" style="edgeStyle=orthogonalEdgeStyle;rounded=0;orthogonalLoop=1;jettySize=auto;html=1;exitX=1;exitY=0.5;exitDx=0;exitDy=0;" edge="1" parent="1" source="EIBAopFfBwxQ-r4Z7fLU-7" target="EIBAopFfBwxQ-r4Z7fLU-10">
          <mxGeometry relative="1" as="geometry" />
        </mxCell>
        <mxCell id="EIBAopFfBwxQ-r4Z7fLU-13" style="edgeStyle=orthogonalEdgeStyle;rounded=0;orthogonalLoop=1;jettySize=auto;html=1;exitX=0.5;exitY=1;exitDx=0;exitDy=0;" edge="1" parent="1" source="EIBAopFfBwxQ-r4Z7fLU-7" target="EIBAopFfBwxQ-r4Z7fLU-12">
          <mxGeometry relative="1" as="geometry" />
        </mxCell>
        <mxCell id="EIBAopFfBwxQ-r4Z7fLU-7" value="猜想可能" style="whiteSpace=wrap;html=1;rounded=1;" vertex="1" parent="1">
          <mxGeometry x="354" y="340" width="120" height="60" as="geometry" />
        </mxCell>
        <mxCell id="EIBAopFfBwxQ-r4Z7fLU-10" value="规则本身顺序" style="whiteSpace=wrap;html=1;rounded=1;" vertex="1" parent="1">
          <mxGeometry x="540" y="340" width="120" height="60" as="geometry" />
        </mxCell>
        <mxCell id="EIBAopFfBwxQ-r4Z7fLU-15" style="edgeStyle=orthogonalEdgeStyle;rounded=0;orthogonalLoop=1;jettySize=auto;html=1;exitX=0.5;exitY=1;exitDx=0;exitDy=0;" edge="1" parent="1" source="EIBAopFfBwxQ-r4Z7fLU-12" target="EIBAopFfBwxQ-r4Z7fLU-14">
          <mxGeometry relative="1" as="geometry" />
        </mxCell>
        <mxCell id="EIBAopFfBwxQ-r4Z7fLU-12" value="没有抵扣联信息" style="whiteSpace=wrap;html=1;rounded=1;" vertex="1" parent="1">
          <mxGeometry x="460" y="440" width="120" height="60" as="geometry" />
        </mxCell>
        <mxCell id="EIBAopFfBwxQ-r4Z7fLU-17" style="edgeStyle=orthogonalEdgeStyle;rounded=0;orthogonalLoop=1;jettySize=auto;html=1;exitX=0.5;exitY=1;exitDx=0;exitDy=0;entryX=0.5;entryY=0;entryDx=0;entryDy=0;" edge="1" parent="1" source="EIBAopFfBwxQ-r4Z7fLU-14" target="EIBAopFfBwxQ-r4Z7fLU-16">
          <mxGeometry relative="1" as="geometry" />
        </mxCell>
        <mxCell id="EIBAopFfBwxQ-r4Z7fLU-14" value="提交上来的方式、哪个接口、标识" style="whiteSpace=wrap;html=1;rounded=1;" vertex="1" parent="1">
          <mxGeometry x="460" y="540" width="120" height="60" as="geometry" />
        </mxCell>
        <mxCell id="EIBAopFfBwxQ-r4Z7fLU-23" style="edgeStyle=orthogonalEdgeStyle;rounded=0;orthogonalLoop=1;jettySize=auto;html=1;exitX=0.5;exitY=1;exitDx=0;exitDy=0;entryX=0.5;entryY=0;entryDx=0;entryDy=0;" edge="1" parent="1" source="EIBAopFfBwxQ-r4Z7fLU-16" target="EIBAopFfBwxQ-r4Z7fLU-22">
          <mxGeometry relative="1" as="geometry" />
        </mxCell>
        <mxCell id="EIBAopFfBwxQ-r4Z7fLU-16" value="票夹、公有云复现、页面&amp;nbsp;" style="whiteSpace=wrap;html=1;rounded=1;" vertex="1" parent="1">
          <mxGeometry x="460" y="630" width="120" height="60" as="geometry" />
        </mxCell>
        <mxCell id="EIBAopFfBwxQ-r4Z7fLU-18" value="范的第二个错：没有全、只想到页面提交，没有考虑到nc调用接口和页面不是同一套逻辑" style="ellipse;whiteSpace=wrap;html=1;fillColor=#ffe6cc;strokeColor=#d79b00;" vertex="1" parent="1">
          <mxGeometry x="630" y="560" width="140" height="85" as="geometry" />
        </mxCell>
        <mxCell id="EIBAopFfBwxQ-r4Z7fLU-19" value="范的第一个错：找不到日志，卡住了。换个思路，解决问题是关键而不是硬苛" style="ellipse;whiteSpace=wrap;html=1;fillColor=#fff2cc;strokeColor=#d6b656;" vertex="1" parent="1">
          <mxGeometry x="274" y="130" width="140" height="85" as="geometry" />
        </mxCell>
        <mxCell id="EIBAopFfBwxQ-r4Z7fLU-20" value="" style="endArrow=none;dashed=1;html=1;dashPattern=1 3;strokeWidth=2;rounded=0;" edge="1" parent="1">
          <mxGeometry width="50" height="50" relative="1" as="geometry">
            <mxPoint x="274" y="250" as="sourcePoint" />
            <mxPoint x="324" y="200" as="targetPoint" />
          </mxGeometry>
        </mxCell>
        <mxCell id="EIBAopFfBwxQ-r4Z7fLU-21" value="" style="endArrow=none;dashed=1;html=1;dashPattern=1 3;strokeWidth=2;rounded=0;" edge="1" parent="1">
          <mxGeometry width="50" height="50" relative="1" as="geometry">
            <mxPoint x="580" y="660" as="sourcePoint" />
            <mxPoint x="630" y="610" as="targetPoint" />
          </mxGeometry>
        </mxCell>
        <mxCell id="EIBAopFfBwxQ-r4Z7fLU-25" style="edgeStyle=orthogonalEdgeStyle;rounded=0;orthogonalLoop=1;jettySize=auto;html=1;exitX=0.5;exitY=1;exitDx=0;exitDy=0;entryX=0.5;entryY=0;entryDx=0;entryDy=0;" edge="1" parent="1" source="EIBAopFfBwxQ-r4Z7fLU-22" target="EIBAopFfBwxQ-r4Z7fLU-24">
          <mxGeometry relative="1" as="geometry" />
        </mxCell>
        <mxCell id="EIBAopFfBwxQ-r4Z7fLU-22" value="没有自测，接口，而是直接给包" style="whiteSpace=wrap;html=1;rounded=1;fillColor=#ffe6cc;strokeColor=#d79b00;" vertex="1" parent="1">
          <mxGeometry x="460" y="740" width="120" height="60" as="geometry" />
        </mxCell>
        <mxCell id="EIBAopFfBwxQ-r4Z7fLU-28" style="edgeStyle=orthogonalEdgeStyle;rounded=0;orthogonalLoop=1;jettySize=auto;html=1;exitX=0.5;exitY=1;exitDx=0;exitDy=0;" edge="1" parent="1" source="EIBAopFfBwxQ-r4Z7fLU-24" target="EIBAopFfBwxQ-r4Z7fLU-26">
          <mxGeometry relative="1" as="geometry" />
        </mxCell>
        <mxCell id="EIBAopFfBwxQ-r4Z7fLU-24" value="上线测试没有按照复现流程重现，而是猜想，导致没有从nc端解决问题只是解决了页面" style="whiteSpace=wrap;html=1;rounded=1;fillColor=#ffe6cc;strokeColor=#d79b00;" vertex="1" parent="1">
          <mxGeometry x="450" y="860" width="140" height="60" as="geometry" />
        </mxCell>
        <mxCell id="EIBAopFfBwxQ-r4Z7fLU-29" style="edgeStyle=orthogonalEdgeStyle;rounded=0;orthogonalLoop=1;jettySize=auto;html=1;" edge="1" parent="1" source="EIBAopFfBwxQ-r4Z7fLU-26" target="EIBAopFfBwxQ-r4Z7fLU-27">
          <mxGeometry relative="1" as="geometry" />
        </mxCell>
        <mxCell id="EIBAopFfBwxQ-r4Z7fLU-26" value="nc端报504，应该登录页面，没有日志，可能是进程卡住了" style="whiteSpace=wrap;html=1;rounded=1;fillColor=#ffe6cc;strokeColor=#d79b00;" vertex="1" parent="1">
          <mxGeometry x="450" y="970" width="140" height="60" as="geometry" />
        </mxCell>
        <mxCell id="EIBAopFfBwxQ-r4Z7fLU-31" style="edgeStyle=orthogonalEdgeStyle;rounded=0;orthogonalLoop=1;jettySize=auto;html=1;exitX=0.5;exitY=1;exitDx=0;exitDy=0;" edge="1" parent="1" source="EIBAopFfBwxQ-r4Z7fLU-27" target="EIBAopFfBwxQ-r4Z7fLU-30">
          <mxGeometry relative="1" as="geometry" />
        </mxCell>
        <mxCell id="EIBAopFfBwxQ-r4Z7fLU-27" value="假死、df -h 查看日志" style="whiteSpace=wrap;html=1;rounded=1;" vertex="1" parent="1">
          <mxGeometry x="450" y="1090" width="140" height="60" as="geometry" />
        </mxCell>
        <mxCell id="EIBAopFfBwxQ-r4Z7fLU-30" value="清理docker的日志" style="whiteSpace=wrap;html=1;rounded=1;" vertex="1" parent="1">
          <mxGeometry x="450" y="1190" width="140" height="60" as="geometry" />
        </mxCell>
        <mxCell id="EIBAopFfBwxQ-r4Z7fLU-46" style="edgeStyle=orthogonalEdgeStyle;rounded=0;orthogonalLoop=1;jettySize=auto;html=1;exitX=0.5;exitY=1;exitDx=0;exitDy=0;entryX=0.5;entryY=0;entryDx=0;entryDy=0;" edge="1" parent="1" source="EIBAopFfBwxQ-r4Z7fLU-32" target="EIBAopFfBwxQ-r4Z7fLU-33">
          <mxGeometry relative="1" as="geometry" />
        </mxCell>
        <mxCell id="EIBAopFfBwxQ-r4Z7fLU-32" value="问题描述：票的信息不能找到" style="rounded=1;whiteSpace=wrap;html=1;" vertex="1" parent="1">
          <mxGeometry x="330" y="1385" width="120" height="60" as="geometry" />
        </mxCell>
        <mxCell id="EIBAopFfBwxQ-r4Z7fLU-49" style="edgeStyle=orthogonalEdgeStyle;rounded=0;orthogonalLoop=1;jettySize=auto;html=1;exitX=0.5;exitY=1;exitDx=0;exitDy=0;" edge="1" parent="1" source="EIBAopFfBwxQ-r4Z7fLU-33" target="EIBAopFfBwxQ-r4Z7fLU-34">
          <mxGeometry relative="1" as="geometry" />
        </mxCell>
        <mxCell id="EIBAopFfBwxQ-r4Z7fLU-33" value="报错位置：map中未获取到值，全电 - 代码的特殊性" style="rounded=1;whiteSpace=wrap;html=1;" vertex="1" parent="1">
          <mxGeometry x="330" y="1482" width="120" height="60" as="geometry" />
        </mxCell>
        <mxCell id="EIBAopFfBwxQ-r4Z7fLU-50" style="edgeStyle=orthogonalEdgeStyle;rounded=0;orthogonalLoop=1;jettySize=auto;html=1;exitX=0.5;exitY=1;exitDx=0;exitDy=0;" edge="1" parent="1" source="EIBAopFfBwxQ-r4Z7fLU-34" target="EIBAopFfBwxQ-r4Z7fLU-35">
          <mxGeometry relative="1" as="geometry" />
        </mxCell>
        <mxCell id="EIBAopFfBwxQ-r4Z7fLU-34" value="查看数据库，其中两张表是 一个空字符 ，而invoice是空，导致不匹配" style="rounded=1;whiteSpace=wrap;html=1;" vertex="1" parent="1">
          <mxGeometry x="330" y="1586" width="120" height="60" as="geometry" />
        </mxCell>
        <mxCell id="EIBAopFfBwxQ-r4Z7fLU-51" style="edgeStyle=orthogonalEdgeStyle;rounded=0;orthogonalLoop=1;jettySize=auto;html=1;exitX=0.5;exitY=1;exitDx=0;exitDy=0;entryX=0.5;entryY=0;entryDx=0;entryDy=0;" edge="1" parent="1" source="EIBAopFfBwxQ-r4Z7fLU-35" target="EIBAopFfBwxQ-r4Z7fLU-36">
          <mxGeometry relative="1" as="geometry" />
        </mxCell>
        <mxCell id="EIBAopFfBwxQ-r4Z7fLU-35" value="为什么在插入invoice会少呢？没有trim," style="rounded=1;whiteSpace=wrap;html=1;" vertex="1" parent="1">
          <mxGeometry x="330" y="1694" width="120" height="60" as="geometry" />
        </mxCell>
        <mxCell id="EIBAopFfBwxQ-r4Z7fLU-52" style="edgeStyle=orthogonalEdgeStyle;rounded=0;orthogonalLoop=1;jettySize=auto;html=1;exitX=0.5;exitY=1;exitDx=0;exitDy=0;" edge="1" parent="1" source="EIBAopFfBwxQ-r4Z7fLU-36" target="EIBAopFfBwxQ-r4Z7fLU-39">
          <mxGeometry relative="1" as="geometry" />
        </mxCell>
        <mxCell id="EIBAopFfBwxQ-r4Z7fLU-36" value="从日志，注意这里时间，不要紧盯着当天，当天是其他操作而不是保存操作" style="rounded=1;whiteSpace=wrap;html=1;fillColor=#ffe6cc;strokeColor=#d79b00;" vertex="1" parent="1">
          <mxGeometry x="330" y="1810" width="120" height="60" as="geometry" />
        </mxCell>
        <mxCell id="EIBAopFfBwxQ-r4Z7fLU-37" value="范的一个错误：&lt;br&gt;日志不全、时间、项目input vs all" style="ellipse;whiteSpace=wrap;html=1;" vertex="1" parent="1">
          <mxGeometry x="519" y="1766" width="120" height="80" as="geometry" />
        </mxCell>
        <mxCell id="EIBAopFfBwxQ-r4Z7fLU-38" value="" style="endArrow=none;dashed=1;html=1;dashPattern=1 3;strokeWidth=2;rounded=0;entryX=0;entryY=0.5;entryDx=0;entryDy=0;" edge="1" parent="1" target="EIBAopFfBwxQ-r4Z7fLU-37">
          <mxGeometry width="50" height="50" relative="1" as="geometry">
            <mxPoint x="459" y="1842" as="sourcePoint" />
            <mxPoint x="509" y="1792" as="targetPoint" />
          </mxGeometry>
        </mxCell>
        <mxCell id="EIBAopFfBwxQ-r4Z7fLU-54" style="edgeStyle=orthogonalEdgeStyle;rounded=0;orthogonalLoop=1;jettySize=auto;html=1;exitX=0.5;exitY=1;exitDx=0;exitDy=0;" edge="1" parent="1" source="EIBAopFfBwxQ-r4Z7fLU-39" target="EIBAopFfBwxQ-r4Z7fLU-40">
          <mxGeometry relative="1" as="geometry" />
        </mxCell>
        <mxCell id="EIBAopFfBwxQ-r4Z7fLU-39" value="日志看，合规这里有，保存时没有了，而后面又有了。这里没有复制， 数据库问题" style="rounded=1;whiteSpace=wrap;html=1;fillColor=#ffe6cc;strokeColor=#d79b00;" vertex="1" parent="1">
          <mxGeometry x="330" y="1919" width="120" height="60" as="geometry" />
        </mxCell>
        <mxCell id="EIBAopFfBwxQ-r4Z7fLU-55" style="edgeStyle=orthogonalEdgeStyle;rounded=0;orthogonalLoop=1;jettySize=auto;html=1;exitX=0.5;exitY=1;exitDx=0;exitDy=0;" edge="1" parent="1" source="EIBAopFfBwxQ-r4Z7fLU-40" target="EIBAopFfBwxQ-r4Z7fLU-41">
          <mxGeometry relative="1" as="geometry" />
        </mxCell>
        <mxCell id="EIBAopFfBwxQ-r4Z7fLU-40" value="postman&amp;nbsp; *** 复现问题，sql信息，" style="rounded=1;whiteSpace=wrap;html=1;fillColor=#ffe6cc;strokeColor=#d79b00;" vertex="1" parent="1">
          <mxGeometry x="330" y="2026" width="120" height="60" as="geometry" />
        </mxCell>
        <mxCell id="EIBAopFfBwxQ-r4Z7fLU-56" style="edgeStyle=orthogonalEdgeStyle;rounded=0;orthogonalLoop=1;jettySize=auto;html=1;exitX=0.5;exitY=1;exitDx=0;exitDy=0;" edge="1" parent="1" source="EIBAopFfBwxQ-r4Z7fLU-41" target="EIBAopFfBwxQ-r4Z7fLU-43">
          <mxGeometry relative="1" as="geometry" />
        </mxCell>
        <mxCell id="EIBAopFfBwxQ-r4Z7fLU-41" value="方案选择：加 空格&amp;nbsp; vs 去空格，这里都写不进去，也加不进去，所以只能去掉其两张表的空格数据再次测试" style="rounded=1;whiteSpace=wrap;html=1;" vertex="1" parent="1">
          <mxGeometry x="330" y="2139" width="120" height="60" as="geometry" />
        </mxCell>
        <mxCell id="EIBAopFfBwxQ-r4Z7fLU-42" value="char&amp;nbsp; vs&amp;nbsp; varchar ,char会自动清理空串导致" style="ellipse;whiteSpace=wrap;html=1;" vertex="1" parent="1">
          <mxGeometry x="529" y="1888" width="120" height="80" as="geometry" />
        </mxCell>
        <mxCell id="EIBAopFfBwxQ-r4Z7fLU-43" value="上游传递空串、char 诱发该问题" style="rounded=1;whiteSpace=wrap;html=1;" vertex="1" parent="1">
          <mxGeometry x="330" y="2263" width="120" height="60" as="geometry" />
        </mxCell>
        <mxCell id="EIBAopFfBwxQ-r4Z7fLU-57" value="" style="endArrow=none;dashed=1;html=1;dashPattern=1 3;strokeWidth=2;rounded=0;" edge="1" parent="1" target="EIBAopFfBwxQ-r4Z7fLU-42">
          <mxGeometry width="50" height="50" relative="1" as="geometry">
            <mxPoint x="453" y="1966" as="sourcePoint" />
            <mxPoint x="503" y="1916" as="targetPoint" />
          </mxGeometry>
        </mxCell>
        <mxCell id="EIBAopFfBwxQ-r4Z7fLU-62" style="edgeStyle=orthogonalEdgeStyle;rounded=0;orthogonalLoop=1;jettySize=auto;html=1;exitX=0.5;exitY=1;exitDx=0;exitDy=0;entryX=0.5;entryY=0;entryDx=0;entryDy=0;" edge="1" parent="1" source="EIBAopFfBwxQ-r4Z7fLU-58" target="EIBAopFfBwxQ-r4Z7fLU-59">
          <mxGeometry relative="1" as="geometry" />
        </mxCell>
        <mxCell id="EIBAopFfBwxQ-r4Z7fLU-58" value="问题描述：不传组织和纳税人识别号，自动解析进入系统" style="rounded=1;whiteSpace=wrap;html=1;" vertex="1" parent="1">
          <mxGeometry x="302" y="2421" width="120" height="60" as="geometry" />
        </mxCell>
        <mxCell id="EIBAopFfBwxQ-r4Z7fLU-66" style="edgeStyle=orthogonalEdgeStyle;rounded=0;orthogonalLoop=1;jettySize=auto;html=1;exitX=0.5;exitY=1;exitDx=0;exitDy=0;" edge="1" parent="1" source="EIBAopFfBwxQ-r4Z7fLU-59" target="EIBAopFfBwxQ-r4Z7fLU-63">
          <mxGeometry relative="1" as="geometry" />
        </mxCell>
        <mxCell id="EIBAopFfBwxQ-r4Z7fLU-59" value="对比原来：1.先解析 - 获取到纳税人识别号 - 补充 - 调用老逻辑找到对应的orgid" style="rounded=1;whiteSpace=wrap;html=1;" vertex="1" parent="1">
          <mxGeometry x="302" y="2532" width="120" height="60" as="geometry" />
        </mxCell>
        <mxCell id="EIBAopFfBwxQ-r4Z7fLU-60" value="问题1：默认组织，原来的逻辑是随机取一个，这里取默认，业务上不严谨&amp;nbsp;" style="ellipse;whiteSpace=wrap;html=1;fillColor=#ffe6cc;strokeColor=#d79b00;" vertex="1" parent="1">
          <mxGeometry x="496" y="2499" width="120" height="80" as="geometry" />
        </mxCell>
        <mxCell id="EIBAopFfBwxQ-r4Z7fLU-61" value="" style="endArrow=none;dashed=1;html=1;dashPattern=1 3;strokeWidth=2;rounded=0;entryX=0.025;entryY=0.369;entryDx=0;entryDy=0;entryPerimeter=0;" edge="1" parent="1" target="EIBAopFfBwxQ-r4Z7fLU-60">
          <mxGeometry width="50" height="50" relative="1" as="geometry">
            <mxPoint x="428" y="2560" as="sourcePoint" />
            <mxPoint x="487" y="2523" as="targetPoint" />
          </mxGeometry>
        </mxCell>
        <mxCell id="EIBAopFfBwxQ-r4Z7fLU-67" style="edgeStyle=orthogonalEdgeStyle;rounded=0;orthogonalLoop=1;jettySize=auto;html=1;exitX=0.5;exitY=1;exitDx=0;exitDy=0;entryX=0.5;entryY=0;entryDx=0;entryDy=0;" edge="1" parent="1" source="EIBAopFfBwxQ-r4Z7fLU-63" target="EIBAopFfBwxQ-r4Z7fLU-64">
          <mxGeometry relative="1" as="geometry" />
        </mxCell>
        <mxCell id="EIBAopFfBwxQ-r4Z7fLU-63" value="编排，其实解析可以只有一次，组织获取能否批量；解析向前提，- 可以批量，之后查验、保存需要组织，所以for循环" style="rounded=1;whiteSpace=wrap;html=1;fillColor=#ffe6cc;strokeColor=#d79b00;" vertex="1" parent="1">
          <mxGeometry x="269" y="2650" width="186" height="60" as="geometry" />
        </mxCell>
        <mxCell id="EIBAopFfBwxQ-r4Z7fLU-70" style="edgeStyle=orthogonalEdgeStyle;rounded=0;orthogonalLoop=1;jettySize=auto;html=1;exitX=0.5;exitY=1;exitDx=0;exitDy=0;entryX=0.5;entryY=0;entryDx=0;entryDy=0;" edge="1" parent="1" source="EIBAopFfBwxQ-r4Z7fLU-64" target="EIBAopFfBwxQ-r4Z7fLU-65">
          <mxGeometry relative="1" as="geometry" />
        </mxCell>
        <mxCell id="EIBAopFfBwxQ-r4Z7fLU-64" value="for位置 - 逻辑应该放到servcie&amp;nbsp; 1. 事务的传递" style="rounded=1;whiteSpace=wrap;html=1;fillColor=#ffe6cc;strokeColor=#d79b00;" vertex="1" parent="1">
          <mxGeometry x="302" y="2757" width="120" height="60" as="geometry" />
        </mxCell>
        <mxCell id="EIBAopFfBwxQ-r4Z7fLU-65" value="返回值：添加orgcode，其他接口联通整个流程时，参数足够" style="rounded=1;whiteSpace=wrap;html=1;" vertex="1" parent="1">
          <mxGeometry x="302" y="2878" width="120" height="60" as="geometry" />
        </mxCell>
        <mxCell id="EIBAopFfBwxQ-r4Z7fLU-74" style="edgeStyle=orthogonalEdgeStyle;rounded=0;orthogonalLoop=1;jettySize=auto;html=1;exitX=0.5;exitY=1;exitDx=0;exitDy=0;" edge="1" parent="1" source="EIBAopFfBwxQ-r4Z7fLU-71" target="EIBAopFfBwxQ-r4Z7fLU-72">
          <mxGeometry relative="1" as="geometry" />
        </mxCell>
        <mxCell id="EIBAopFfBwxQ-r4Z7fLU-71" value="问题描述：版本错乱合规报错" style="rounded=1;whiteSpace=wrap;html=1;" vertex="1" parent="1">
          <mxGeometry x="333" y="3196" width="120" height="60" as="geometry" />
        </mxCell>
        <mxCell id="EIBAopFfBwxQ-r4Z7fLU-75" style="edgeStyle=orthogonalEdgeStyle;rounded=0;orthogonalLoop=1;jettySize=auto;html=1;exitX=0.5;exitY=1;exitDx=0;exitDy=0;" edge="1" parent="1" source="EIBAopFfBwxQ-r4Z7fLU-72" target="EIBAopFfBwxQ-r4Z7fLU-73">
          <mxGeometry relative="1" as="geometry" />
        </mxCell>
        <mxCell id="EIBAopFfBwxQ-r4Z7fLU-72" value="报这个错说明是上了上下文，但是现在看没有上下文，所以arthas反编译代码又是老代码" style="rounded=1;whiteSpace=wrap;html=1;" vertex="1" parent="1">
          <mxGeometry x="265" y="3291" width="256" height="128" as="geometry" />
        </mxCell>
        <mxCell id="EIBAopFfBwxQ-r4Z7fLU-73" value="版本被人更新过，错乱版本的时候外围报错" style="rounded=1;whiteSpace=wrap;html=1;" vertex="1" parent="1">
          <mxGeometry x="333" y="3453" width="120" height="60" as="geometry" />
        </mxCell>
        <mxCell id="EIBAopFfBwxQ-r4Z7fLU-82" style="edgeStyle=orthogonalEdgeStyle;rounded=0;orthogonalLoop=1;jettySize=auto;html=1;exitX=0.5;exitY=1;exitDx=0;exitDy=0;" edge="1" parent="1" source="EIBAopFfBwxQ-r4Z7fLU-76" target="EIBAopFfBwxQ-r4Z7fLU-77">
          <mxGeometry relative="1" as="geometry" />
        </mxCell>
        <mxCell id="EIBAopFfBwxQ-r4Z7fLU-76" value="问题描述：全电发票合规报错" style="rounded=1;whiteSpace=wrap;html=1;" vertex="1" parent="1">
          <mxGeometry x="305" y="3650" width="120" height="60" as="geometry" />
        </mxCell>
        <mxCell id="EIBAopFfBwxQ-r4Z7fLU-83" style="edgeStyle=orthogonalEdgeStyle;rounded=0;orthogonalLoop=1;jettySize=auto;html=1;exitX=0.5;exitY=1;exitDx=0;exitDy=0;entryX=0.5;entryY=0;entryDx=0;entryDy=0;" edge="1" parent="1" source="EIBAopFfBwxQ-r4Z7fLU-77" target="EIBAopFfBwxQ-r4Z7fLU-80">
          <mxGeometry relative="1" as="geometry" />
        </mxCell>
        <mxCell id="EIBAopFfBwxQ-r4Z7fLU-77" value="从地方看空指针，日志看好多解析报错" style="rounded=1;whiteSpace=wrap;html=1;" vertex="1" parent="1">
          <mxGeometry x="305" y="3753" width="120" height="60" as="geometry" />
        </mxCell>
        <mxCell id="EIBAopFfBwxQ-r4Z7fLU-78" value="不要被混淆，具体到报错行数" style="ellipse;whiteSpace=wrap;html=1;fillColor=#ffe6cc;strokeColor=#d79b00;" vertex="1" parent="1">
          <mxGeometry x="474" y="3710" width="120" height="80" as="geometry" />
        </mxCell>
        <mxCell id="EIBAopFfBwxQ-r4Z7fLU-79" value="" style="endArrow=none;dashed=1;html=1;dashPattern=1 3;strokeWidth=2;rounded=0;" edge="1" parent="1">
          <mxGeometry width="50" height="50" relative="1" as="geometry">
            <mxPoint x="434" y="3794" as="sourcePoint" />
            <mxPoint x="484" y="3744" as="targetPoint" />
          </mxGeometry>
        </mxCell>
        <mxCell id="EIBAopFfBwxQ-r4Z7fLU-86" style="edgeStyle=orthogonalEdgeStyle;rounded=0;orthogonalLoop=1;jettySize=auto;html=1;exitX=0.5;exitY=1;exitDx=0;exitDy=0;entryX=0.5;entryY=0;entryDx=0;entryDy=0;" edge="1" parent="1" source="EIBAopFfBwxQ-r4Z7fLU-80" target="EIBAopFfBwxQ-r4Z7fLU-81">
          <mxGeometry relative="1" as="geometry" />
        </mxCell>
        <mxCell id="EIBAopFfBwxQ-r4Z7fLU-80" value="代码中从上下文更具名称获取，因为版本问题导致没有找到对应的bean ，" style="rounded=1;whiteSpace=wrap;html=1;" vertex="1" parent="1">
          <mxGeometry x="305" y="3856" width="120" height="60" as="geometry" />
        </mxCell>
        <mxCell id="EIBAopFfBwxQ-r4Z7fLU-81" value="不要忽略版本错乱导致的问题" style="rounded=1;whiteSpace=wrap;html=1;" vertex="1" parent="1">
          <mxGeometry x="305" y="3966" width="120" height="60" as="geometry" />
        </mxCell>
        <mxCell id="EIBAopFfBwxQ-r4Z7fLU-93" style="edgeStyle=orthogonalEdgeStyle;rounded=0;orthogonalLoop=1;jettySize=auto;html=1;" edge="1" parent="1" source="EIBAopFfBwxQ-r4Z7fLU-87" target="EIBAopFfBwxQ-r4Z7fLU-88">
          <mxGeometry relative="1" as="geometry" />
        </mxCell>
        <mxCell id="EIBAopFfBwxQ-r4Z7fLU-87" value="问题描述：多语未翻译" style="rounded=1;whiteSpace=wrap;html=1;" vertex="1" parent="1">
          <mxGeometry x="286" y="4221" width="128" height="60" as="geometry" />
        </mxCell>
        <mxCell id="EIBAopFfBwxQ-r4Z7fLU-95" style="edgeStyle=orthogonalEdgeStyle;rounded=0;orthogonalLoop=1;jettySize=auto;html=1;exitX=0.5;exitY=1;exitDx=0;exitDy=0;" edge="1" parent="1" source="EIBAopFfBwxQ-r4Z7fLU-88" target="EIBAopFfBwxQ-r4Z7fLU-89">
          <mxGeometry relative="1" as="geometry" />
        </mxCell>
        <mxCell id="EIBAopFfBwxQ-r4Z7fLU-88" value="从redis取， 平台redis vs 自己的redis" style="rounded=1;whiteSpace=wrap;html=1;" vertex="1" parent="1">
          <mxGeometry x="286" y="4318" width="128" height="60" as="geometry" />
        </mxCell>
        <mxCell id="EIBAopFfBwxQ-r4Z7fLU-105" style="edgeStyle=orthogonalEdgeStyle;rounded=0;orthogonalLoop=1;jettySize=auto;html=1;exitX=0.5;exitY=1;exitDx=0;exitDy=0;" edge="1" parent="1" source="EIBAopFfBwxQ-r4Z7fLU-89" target="EIBAopFfBwxQ-r4Z7fLU-90">
          <mxGeometry relative="1" as="geometry" />
        </mxCell>
        <mxCell id="EIBAopFfBwxQ-r4Z7fLU-89" value="查看 配置文件 、 代码版本、手动连按上去看数据。一连发现是两个redis ,没有值" style="rounded=1;whiteSpace=wrap;html=1;fillColor=#ffe6cc;strokeColor=#d79b00;" vertex="1" parent="1">
          <mxGeometry x="286" y="4430" width="128" height="60" as="geometry" />
        </mxCell>
        <mxCell id="EIBAopFfBwxQ-r4Z7fLU-106" style="edgeStyle=orthogonalEdgeStyle;rounded=0;orthogonalLoop=1;jettySize=auto;html=1;exitX=0.5;exitY=1;exitDx=0;exitDy=0;" edge="1" parent="1" source="EIBAopFfBwxQ-r4Z7fLU-90" target="EIBAopFfBwxQ-r4Z7fLU-96">
          <mxGeometry relative="1" as="geometry" />
        </mxCell>
        <mxCell id="EIBAopFfBwxQ-r4Z7fLU-90" value="解决方案比较：将平台的翻译值 挪到 新redis 2.为什么会连接这里，公有云会不会有问题" style="rounded=1;whiteSpace=wrap;html=1;" vertex="1" parent="1">
          <mxGeometry x="286" y="4542" width="128" height="60" as="geometry" />
        </mxCell>
        <mxCell id="EIBAopFfBwxQ-r4Z7fLU-94" value="第一个错误：ip一致，端口不同是两个应用 vs&amp;nbsp; 集群部署的哨兵等" style="ellipse;whiteSpace=wrap;html=1;fillColor=#f8cecc;strokeColor=#b85450;" vertex="1" parent="1">
          <mxGeometry x="460" y="4385" width="120" height="80" as="geometry" />
        </mxCell>
        <mxCell id="EIBAopFfBwxQ-r4Z7fLU-107" style="edgeStyle=orthogonalEdgeStyle;rounded=0;orthogonalLoop=1;jettySize=auto;html=1;exitX=0.5;exitY=1;exitDx=0;exitDy=0;" edge="1" parent="1" source="EIBAopFfBwxQ-r4Z7fLU-96" target="EIBAopFfBwxQ-r4Z7fLU-97">
          <mxGeometry relative="1" as="geometry" />
        </mxCell>
        <mxCell id="EIBAopFfBwxQ-r4Z7fLU-96" value="根本原因：从配置文件看有个指向环境的配置变了，n -&amp;gt; y导致" style="rounded=1;whiteSpace=wrap;html=1;" vertex="1" parent="1">
          <mxGeometry x="286" y="4647" width="128" height="60" as="geometry" />
        </mxCell>
        <mxCell id="EIBAopFfBwxQ-r4Z7fLU-97" value="为了不影响其他，代码兼容，如果取不到去另一个地方去取" style="rounded=1;whiteSpace=wrap;html=1;" vertex="1" parent="1">
          <mxGeometry x="286" y="4773" width="128" height="60" as="geometry" />
        </mxCell>
        <mxCell id="EIBAopFfBwxQ-r4Z7fLU-98" value="从本地看配置 vs 部署时的配置文件" style="ellipse;whiteSpace=wrap;html=1;fillColor=#f8cecc;strokeColor=#b85450;" vertex="1" parent="1">
          <mxGeometry x="467" y="4602" width="120" height="80" as="geometry" />
        </mxCell>
        <mxCell id="EIBAopFfBwxQ-r4Z7fLU-99" value="影响性分析，出代码" style="ellipse;whiteSpace=wrap;html=1;fillColor=#f8cecc;strokeColor=#b85450;" vertex="1" parent="1">
          <mxGeometry x="460" y="4719" width="120" height="80" as="geometry" />
        </mxCell>
        <mxCell id="EIBAopFfBwxQ-r4Z7fLU-100" value="" style="endArrow=none;dashed=1;html=1;dashPattern=1 3;strokeWidth=2;rounded=0;" edge="1" parent="1">
          <mxGeometry width="50" height="50" relative="1" as="geometry">
            <mxPoint x="412" y="4472" as="sourcePoint" />
            <mxPoint x="462" y="4422" as="targetPoint" />
          </mxGeometry>
        </mxCell>
        <mxCell id="EIBAopFfBwxQ-r4Z7fLU-101" value="" style="endArrow=none;dashed=1;html=1;dashPattern=1 3;strokeWidth=2;rounded=0;" edge="1" parent="1">
          <mxGeometry width="50" height="50" relative="1" as="geometry">
            <mxPoint x="422" y="4691" as="sourcePoint" />
            <mxPoint x="472" y="4641" as="targetPoint" />
          </mxGeometry>
        </mxCell>
        <mxCell id="EIBAopFfBwxQ-r4Z7fLU-102" value="" style="endArrow=none;dashed=1;html=1;dashPattern=1 3;strokeWidth=2;rounded=0;" edge="1" parent="1">
          <mxGeometry width="50" height="50" relative="1" as="geometry">
            <mxPoint x="414" y="4799" as="sourcePoint" />
            <mxPoint x="464" y="4749" as="targetPoint" />
          </mxGeometry>
        </mxCell>
        <mxCell id="EIBAopFfBwxQ-r4Z7fLU-113" style="edgeStyle=orthogonalEdgeStyle;rounded=0;orthogonalLoop=1;jettySize=auto;html=1;exitX=0.5;exitY=1;exitDx=0;exitDy=0;" edge="1" parent="1" source="EIBAopFfBwxQ-r4Z7fLU-108" target="EIBAopFfBwxQ-r4Z7fLU-109">
          <mxGeometry relative="1" as="geometry" />
        </mxCell>
        <mxCell id="EIBAopFfBwxQ-r4Z7fLU-108" value="现象： 数据量多的时候，导致超时" style="rounded=1;whiteSpace=wrap;html=1;" vertex="1" parent="1">
          <mxGeometry x="294" y="4984" width="128" height="60" as="geometry" />
        </mxCell>
        <mxCell id="EIBAopFfBwxQ-r4Z7fLU-114" style="edgeStyle=orthogonalEdgeStyle;rounded=0;orthogonalLoop=1;jettySize=auto;html=1;exitX=0.5;exitY=1;exitDx=0;exitDy=0;" edge="1" parent="1" source="EIBAopFfBwxQ-r4Z7fLU-109" target="EIBAopFfBwxQ-r4Z7fLU-110">
          <mxGeometry relative="1" as="geometry" />
        </mxCell>
        <mxCell id="EIBAopFfBwxQ-r4Z7fLU-109" value="从日志看时合规耗时工具使用" style="rounded=1;whiteSpace=wrap;html=1;" vertex="1" parent="1">
          <mxGeometry x="294" y="5092" width="128" height="60" as="geometry" />
        </mxCell>
        <mxCell id="EIBAopFfBwxQ-r4Z7fLU-117" style="edgeStyle=orthogonalEdgeStyle;rounded=0;orthogonalLoop=1;jettySize=auto;html=1;exitX=0.5;exitY=1;exitDx=0;exitDy=0;entryX=0.5;entryY=0;entryDx=0;entryDy=0;" edge="1" parent="1" source="EIBAopFfBwxQ-r4Z7fLU-110" target="EIBAopFfBwxQ-r4Z7fLU-115">
          <mxGeometry relative="1" as="geometry" />
        </mxCell>
        <mxCell id="EIBAopFfBwxQ-r4Z7fLU-110" value="edit编辑器：cost所在行、列模式获取耗时 、计算值" style="rounded=1;whiteSpace=wrap;html=1;fillColor=#ffe6cc;strokeColor=#d79b00;" vertex="1" parent="1">
          <mxGeometry x="294" y="5209" width="128" height="60" as="geometry" />
        </mxCell>
        <mxCell id="EIBAopFfBwxQ-r4Z7fLU-115" value="具体合规代码耗时" style="rounded=1;whiteSpace=wrap;html=1;" vertex="1" parent="1">
          <mxGeometry x="294" y="5333" width="128" height="60" as="geometry" />
        </mxCell>
        <mxCell id="EIBAopFfBwxQ-r4Z7fLU-118" value="工具的使用，不仅仅是工具，要带着编程思想去使用" style="ellipse;whiteSpace=wrap;html=1;fillColor=#ffe6cc;strokeColor=#d79b00;" vertex="1" parent="1">
          <mxGeometry x="467" y="5158" width="120" height="80" as="geometry" />
        </mxCell>
        <mxCell id="EIBAopFfBwxQ-r4Z7fLU-119" value="" style="endArrow=none;dashed=1;html=1;dashPattern=1 3;strokeWidth=2;rounded=0;" edge="1" parent="1">
          <mxGeometry width="50" height="50" relative="1" as="geometry">
            <mxPoint x="423" y="5246" as="sourcePoint" />
            <mxPoint x="473" y="5196" as="targetPoint" />
          </mxGeometry>
        </mxCell>
      </root>
    </mxGraphModel>
  </diagram>
</mxfile>
